<svg width="432" height="161" viewBox="0 0 432 161" fill="none" xmlns="http://www.w3.org/2000/svg">
<path d="M52.4365 92.3203H53.3906L74.0469 0H105.827L73.8887 112.024H31.9385L0 0H31.7803L52.4365 92.3203ZM164.913 0C176.248 3.59364e-05 186.152 2.22469 194.627 6.67383C203.102 11.123 209.722 17.5318 214.489 25.9004C219.256 34.2691 221.64 44.3332 221.64 56.0918C221.64 67.8502 219.256 77.9136 214.489 86.2822C209.722 94.545 203.048 100.901 194.468 105.351C185.993 109.8 176.089 112.024 164.754 112.024H122.486V97.6172C128.139 98.7122 134.604 99.3672 141.586 99.3672C165.432 99.3672 183.257 91.7437 183.257 84.9326V67.5195C174.311 74.0835 157.611 77.5449 141.586 77.5449C135.146 77.5449 128.597 76.9848 122.486 75.8906V69.2031C128.139 70.2982 134.604 70.9531 141.586 70.9531C165.432 70.9531 183.257 63.3297 183.257 56.5186V39.1221C174.311 45.6901 157.611 49.1514 141.586 49.1514C135.146 49.1513 128.597 48.5909 122.486 47.4961V40.9531C128.208 41.9782 134.702 42.5576 141.586 42.5576C164.598 42.5576 183.257 36.0888 183.257 28.1074C183.256 20.1307 164.598 13.6621 141.586 13.6621C134.702 13.6621 128.208 14.2407 122.486 15.2656V0H164.913ZM338.661 112.024H308.47L302.362 87.5537H266.154L260.006 112.024H229.814L263.024 0H305.292L338.661 112.024ZM385.115 87.8711H427.7V112.024H355.56V0H385.115V87.8711ZM271.863 64.8311H296.691L284.794 17.1611H283.841L271.863 64.8311Z" fill="#187BAE"/>
<path d="M55.1431 129.545L45.0659 153.285H41.6626L31.5356 129.545H34.7729L43.4722 150.098L51.9556 129.545H55.1431ZM61.4517 135.854V153.285H58.3804V135.854H61.4517ZM61.4517 129.545V132.45H58.3804V129.545H61.4517ZM66.7808 153.285V135.854H68.856L69.4038 138.078C70.9312 136.595 72.7684 135.854 74.9155 135.854V138.41C72.8348 138.41 71.147 139.146 69.8521 140.618V153.285H66.7808ZM78.0034 133.031H79.9292L80.5933 135.854H85.3081V138.344H81.0747V148.355C81.0747 149.982 81.7775 150.795 83.1831 150.795H85.3081V153.285H82.3862C79.4644 153.285 78.0034 151.719 78.0034 148.587V133.031ZM104.25 135.854V153.285H102.142L101.611 151.061C99.4969 152.544 97.3719 153.285 95.2358 153.285C91.2293 153.285 89.2261 151.122 89.2261 146.794V135.854H92.2974V146.844C92.2974 149.434 93.5812 150.729 96.1489 150.729C97.9087 150.729 99.5854 149.993 101.179 148.521V135.854H104.25ZM108.417 148.023C108.417 144.448 110.775 142.66 115.49 142.66C117.006 142.66 118.522 142.771 120.039 142.992V141.349C120.039 139.346 118.472 138.344 115.34 138.344C113.547 138.344 111.71 138.621 109.829 139.174V136.684C111.71 136.13 113.547 135.854 115.34 135.854C120.52 135.854 123.11 137.658 123.11 141.266V153.285H121.383L120.321 151.559C118.583 152.71 116.691 153.285 114.643 153.285C110.493 153.285 108.417 151.531 108.417 148.023ZM115.49 145.151C112.822 145.151 111.489 146.091 111.489 147.973C111.489 149.854 112.54 150.795 114.643 150.795C116.768 150.795 118.567 150.231 120.039 149.102V145.483C118.522 145.261 117.006 145.151 115.49 145.151ZM131.344 129.545V153.285H128.273V129.545H131.344ZM153.773 150.795C159.583 150.795 162.489 147.453 162.489 140.768C162.489 134.946 159.583 132.035 153.773 132.035H148.211V150.795H153.773ZM145.14 153.285V129.545H153.773C161.631 129.545 165.56 133.286 165.56 140.768C165.56 149.113 161.631 153.285 153.773 153.285H145.14ZM168.88 148.023C168.88 144.448 171.238 142.66 175.953 142.66C177.469 142.66 178.985 142.771 180.501 142.992V141.349C180.501 139.346 178.935 138.344 175.803 138.344C174.01 138.344 172.173 138.621 170.292 139.174V136.684C172.173 136.13 174.01 135.854 175.803 135.854C180.983 135.854 183.573 137.658 183.573 141.266V153.285H181.846L180.784 151.559C179.046 152.71 177.153 153.285 175.106 153.285C170.956 153.285 168.88 151.531 168.88 148.023ZM175.953 145.151C173.285 145.151 171.952 146.091 171.952 147.973C171.952 149.854 173.003 150.795 175.106 150.795C177.231 150.795 179.029 150.231 180.501 149.102V145.483C178.985 145.261 177.469 145.151 175.953 145.151ZM188.57 133.031H190.496L191.16 135.854H195.875V138.344H191.641V148.355C191.641 149.982 192.344 150.795 193.75 150.795H195.875V153.285H192.953C190.031 153.285 188.57 151.719 188.57 148.587V133.031ZM198.962 148.023C198.962 144.448 201.32 142.66 206.035 142.66C207.551 142.66 209.067 142.771 210.583 142.992V141.349C210.583 139.346 209.017 138.344 205.885 138.344C204.092 138.344 202.255 138.621 200.374 139.174V136.684C202.255 136.13 204.092 135.854 205.885 135.854C211.065 135.854 213.655 137.658 213.655 141.266V153.285H211.928L210.866 151.559C209.128 152.71 207.236 153.285 205.188 153.285C201.038 153.285 198.962 151.531 198.962 148.023ZM206.035 145.151C203.367 145.151 202.034 146.091 202.034 147.973C202.034 149.854 203.085 150.795 205.188 150.795C207.313 150.795 209.111 150.231 210.583 149.102V145.483C209.067 145.261 207.551 145.151 206.035 145.151ZM228.065 153.285H224.877L234.955 129.545H238.358L248.485 153.285H245.082L242.01 145.815H234.158L235.004 143.324H240.981L236.548 132.567L228.065 153.285ZM264.505 152.787C263.067 153.119 261.517 153.285 259.857 153.285C253.659 153.285 250.56 150.269 250.56 144.238C250.56 138.648 253.659 135.854 259.857 135.854C261.517 135.854 263.067 136.02 264.505 136.352V138.842C263.067 138.51 261.462 138.344 259.691 138.344C255.651 138.344 253.631 140.309 253.631 144.238C253.631 148.609 255.651 150.795 259.691 150.795C261.462 150.795 263.067 150.629 264.505 150.297V152.787ZM281.539 152.787C280.1 153.119 278.55 153.285 276.89 153.285C270.692 153.285 267.593 150.269 267.593 144.238C267.593 138.648 270.692 135.854 276.89 135.854C278.55 135.854 280.1 136.02 281.539 136.352V138.842C280.1 138.51 278.495 138.344 276.724 138.344C272.684 138.344 270.665 140.309 270.665 144.238C270.665 148.609 272.684 150.795 276.724 150.795C278.495 150.795 280.1 150.629 281.539 150.297V152.787ZM292.645 135.854C297.603 135.854 300.083 138.305 300.083 143.208C300.083 143.906 300.033 144.653 299.933 145.449H287.698C287.698 149.013 289.778 150.795 293.94 150.795C295.921 150.795 297.681 150.574 299.219 150.131V152.621C297.681 153.064 295.81 153.285 293.608 153.285C287.62 153.285 284.626 150.314 284.626 144.37C284.626 138.693 287.299 135.854 292.645 135.854ZM287.698 142.893H297.127C297.061 139.838 295.567 138.311 292.645 138.311C289.546 138.311 287.897 139.838 287.698 142.893ZM304.05 152.455V149.799C306.098 150.463 308.167 150.795 310.259 150.795C313.037 150.795 314.426 149.965 314.426 148.305C314.426 146.755 313.458 145.981 311.521 145.981H309.031C305.268 145.981 303.386 144.265 303.386 140.834C303.386 137.514 305.805 135.854 310.641 135.854C312.722 135.854 314.786 136.13 316.833 136.684V139.34C314.786 138.676 312.722 138.344 310.641 138.344C307.741 138.344 306.292 139.174 306.292 140.834C306.292 142.384 307.205 143.158 309.031 143.158H311.521C315.505 143.158 317.498 144.874 317.498 148.305C317.498 151.625 315.085 153.285 310.259 153.285C308.167 153.285 306.098 153.009 304.05 152.455ZM321.482 152.455V149.799C323.529 150.463 325.599 150.795 327.691 150.795C330.469 150.795 331.858 149.965 331.858 148.305C331.858 146.755 330.889 145.981 328.953 145.981H326.462C322.699 145.981 320.818 144.265 320.818 140.834C320.818 137.514 323.236 135.854 328.073 135.854C330.153 135.854 332.218 136.13 334.265 136.684V139.34C332.218 138.676 330.153 138.344 328.073 138.344C325.173 138.344 323.723 139.174 323.723 140.834C323.723 142.384 324.636 143.158 326.462 143.158H328.953C332.937 143.158 334.929 144.874 334.929 148.305C334.929 151.625 332.516 153.285 327.691 153.285C325.599 153.285 323.529 153.009 321.482 152.455ZM350.784 129.545V150.795H363.202V153.285H347.712V129.545H350.784ZM365.708 148.023C365.708 144.448 368.066 142.66 372.781 142.66C374.297 142.66 375.813 142.771 377.33 142.992V141.349C377.33 139.346 375.764 138.344 372.631 138.344C370.838 138.344 369.001 138.621 367.12 139.174V136.684C369.001 136.13 370.838 135.854 372.631 135.854C377.811 135.854 380.401 137.658 380.401 141.266V153.285H378.674L377.612 151.559C375.874 152.71 373.982 153.285 371.934 153.285C367.784 153.285 365.708 151.531 365.708 148.023ZM372.781 145.151C370.113 145.151 368.78 146.091 368.78 147.973C368.78 149.854 369.831 150.795 371.934 150.795C374.059 150.795 375.858 150.231 377.33 149.102V145.483C375.813 145.261 374.297 145.151 372.781 145.151ZM383.323 135.854H386.66L391.59 149.467L396.687 135.854H399.941L392.703 153.8C391.419 156.965 389.493 158.941 386.925 159.727L385.747 157.552C387.694 156.7 389.111 155.311 389.997 153.385L383.323 135.854ZM410.018 135.854C414.976 135.854 417.456 138.305 417.456 143.208C417.456 143.906 417.406 144.653 417.306 145.449H405.071C405.071 149.013 407.152 150.795 411.313 150.795C413.294 150.795 415.054 150.574 416.592 150.131V152.621C415.054 153.064 413.183 153.285 410.981 153.285C404.993 153.285 402 150.314 402 144.37C402 138.693 404.672 135.854 410.018 135.854ZM405.071 142.893H414.5C414.434 139.838 412.94 138.311 410.018 138.311C406.919 138.311 405.27 139.838 405.071 142.893ZM421.589 153.285V135.854H423.665L424.212 138.078C425.74 136.595 427.577 135.854 429.724 135.854V138.41C427.643 138.41 425.956 139.146 424.661 140.618V153.285H421.589Z" fill="#012234"/>
</svg>
