<svg width="432" height="161" viewBox="0 0 432 161" fill="none" xmlns="http://www.w3.org/2000/svg">
<path d="M52.4365 92.3203H53.3906L74.0469 0H105.827L73.8887 112.024H31.9385L0 0H31.7803L52.4365 92.3203ZM164.913 0C176.248 3.59364e-05 186.152 2.22469 194.627 6.67383C203.102 11.123 209.722 17.5318 214.489 25.9004C219.256 34.2691 221.64 44.3332 221.64 56.0918C221.64 67.8502 219.256 77.9136 214.489 86.2822C209.722 94.545 203.048 100.901 194.468 105.351C185.993 109.8 176.089 112.024 164.754 112.024H122.486V97.6172C128.139 98.7122 134.604 99.3672 141.586 99.3672C165.432 99.3672 183.257 91.7437 183.257 84.9326V67.5195C174.311 74.0835 157.611 77.5449 141.586 77.5449C135.146 77.5449 128.597 76.9848 122.486 75.8906V69.2031C128.139 70.2982 134.604 70.9531 141.586 70.9531C165.432 70.9531 183.257 63.3297 183.257 56.5186V39.1221C174.311 45.6901 157.611 49.1514 141.586 49.1514C135.146 49.1513 128.597 48.5909 122.486 47.4961V40.9531C128.208 41.9782 134.702 42.5576 141.586 42.5576C164.598 42.5576 183.257 36.0888 183.257 28.1074C183.256 20.1307 164.598 13.6621 141.586 13.6621C134.702 13.6621 128.208 14.2407 122.486 15.2656V0H164.913ZM338.661 112.024H308.47L302.362 87.5537H266.154L260.006 112.024H229.814L263.024 0H305.292L338.661 112.024ZM385.115 87.8711H427.7V112.024H355.56V0H385.115V87.8711ZM271.863 64.8311H296.691L284.794 17.1611H283.841L271.863 64.8311Z" fill="white"/>
<path d="M55.1436 129.545L45.0664 153.285H41.6631L31.5361 129.545H34.7734L43.4727 150.098L51.9561 129.545H55.1436ZM61.4521 135.854V153.285H58.3809V135.854H61.4521ZM61.4521 129.545V132.45H58.3809V129.545H61.4521ZM66.7812 153.285V135.854H68.8564L69.4043 138.078C70.9316 136.595 72.7689 135.854 74.916 135.854V138.41C72.8353 138.41 71.1475 139.146 69.8525 140.618V153.285H66.7812ZM78.0039 133.031H79.9297L80.5938 135.854H85.3086V138.344H81.0752V148.355C81.0752 149.982 81.778 150.795 83.1836 150.795H85.3086V153.285H82.3867C79.4648 153.285 78.0039 151.719 78.0039 148.587V133.031ZM104.251 135.854V153.285H102.143L101.611 151.061C99.4974 152.544 97.3724 153.285 95.2363 153.285C91.2298 153.285 89.2266 151.122 89.2266 146.794V135.854H92.2979V146.844C92.2979 149.434 93.5817 150.729 96.1494 150.729C97.9092 150.729 99.5859 149.993 101.18 148.521V135.854H104.251ZM108.418 148.023C108.418 144.448 110.775 142.66 115.49 142.66C117.007 142.66 118.523 142.771 120.039 142.992V141.349C120.039 139.346 118.473 138.344 115.341 138.344C113.548 138.344 111.711 138.621 109.829 139.174V136.684C111.711 136.13 113.548 135.854 115.341 135.854C120.521 135.854 123.11 137.658 123.11 141.266V153.285H121.384L120.321 151.559C118.584 152.71 116.691 153.285 114.644 153.285C110.493 153.285 108.418 151.531 108.418 148.023ZM115.49 145.151C112.823 145.151 111.489 146.091 111.489 147.973C111.489 149.854 112.541 150.795 114.644 150.795C116.769 150.795 118.567 150.231 120.039 149.102V145.483C118.523 145.261 117.007 145.151 115.49 145.151ZM131.345 129.545V153.285H128.273V129.545H131.345ZM153.773 150.795C159.584 150.795 162.489 147.453 162.489 140.768C162.489 134.946 159.584 132.035 153.773 132.035H148.212V150.795H153.773ZM145.141 153.285V129.545H153.773C161.632 129.545 165.561 133.286 165.561 140.768C165.561 149.113 161.632 153.285 153.773 153.285H145.141ZM168.881 148.023C168.881 144.448 171.238 142.66 175.953 142.66C177.469 142.66 178.986 142.771 180.502 142.992V141.349C180.502 139.346 178.936 138.344 175.804 138.344C174.011 138.344 172.174 138.621 170.292 139.174V136.684C172.174 136.13 174.011 135.854 175.804 135.854C180.983 135.854 183.573 137.658 183.573 141.266V153.285H181.847L180.784 151.559C179.047 152.71 177.154 153.285 175.106 153.285C170.956 153.285 168.881 151.531 168.881 148.023ZM175.953 145.151C173.286 145.151 171.952 146.091 171.952 147.973C171.952 149.854 173.004 150.795 175.106 150.795C177.231 150.795 179.03 150.231 180.502 149.102V145.483C178.986 145.261 177.469 145.151 175.953 145.151ZM188.57 133.031H190.496L191.16 135.854H195.875V138.344H191.642V148.355C191.642 149.982 192.344 150.795 193.75 150.795H195.875V153.285H192.953C190.031 153.285 188.57 151.719 188.57 148.587V133.031ZM198.963 148.023C198.963 144.448 201.32 142.66 206.035 142.66C207.551 142.66 209.068 142.771 210.584 142.992V141.349C210.584 139.346 209.018 138.344 205.886 138.344C204.093 138.344 202.256 138.621 200.374 139.174V136.684C202.256 136.13 204.093 135.854 205.886 135.854C211.065 135.854 213.655 137.658 213.655 141.266V153.285H211.929L210.866 151.559C209.129 152.71 207.236 153.285 205.188 153.285C201.038 153.285 198.963 151.531 198.963 148.023ZM206.035 145.151C203.368 145.151 202.034 146.091 202.034 147.973C202.034 149.854 203.086 150.795 205.188 150.795C207.313 150.795 209.112 150.231 210.584 149.102V145.483C209.068 145.261 207.551 145.151 206.035 145.151ZM228.065 153.285H224.878L234.955 129.545H238.358L248.485 153.285H245.082L242.011 145.815H234.158L235.005 143.324H240.981L236.549 132.567L228.065 153.285ZM264.506 152.787C263.067 153.119 261.518 153.285 259.857 153.285C253.66 153.285 250.561 150.269 250.561 144.238C250.561 138.648 253.66 135.854 259.857 135.854C261.518 135.854 263.067 136.02 264.506 136.352V138.842C263.067 138.51 261.462 138.344 259.691 138.344C255.652 138.344 253.632 140.309 253.632 144.238C253.632 148.609 255.652 150.795 259.691 150.795C261.462 150.795 263.067 150.629 264.506 150.297V152.787ZM281.539 152.787C280.1 153.119 278.551 153.285 276.891 153.285C270.693 153.285 267.594 150.269 267.594 144.238C267.594 138.648 270.693 135.854 276.891 135.854C278.551 135.854 280.1 136.02 281.539 136.352V138.842C280.1 138.51 278.495 138.344 276.725 138.344C272.685 138.344 270.665 140.309 270.665 144.238C270.665 148.609 272.685 150.795 276.725 150.795C278.495 150.795 280.1 150.629 281.539 150.297V152.787ZM292.646 135.854C297.604 135.854 300.083 138.305 300.083 143.208C300.083 143.906 300.033 144.653 299.934 145.449H287.698C287.698 149.013 289.779 150.795 293.94 150.795C295.922 150.795 297.681 150.574 299.22 150.131V152.621C297.681 153.064 295.811 153.285 293.608 153.285C287.621 153.285 284.627 150.314 284.627 144.37C284.627 138.693 287.3 135.854 292.646 135.854ZM287.698 142.893H297.128C297.062 139.838 295.567 138.311 292.646 138.311C289.547 138.311 287.897 139.838 287.698 142.893ZM304.051 152.455V149.799C306.098 150.463 308.168 150.795 310.26 150.795C313.038 150.795 314.427 149.965 314.427 148.305C314.427 146.755 313.458 145.981 311.521 145.981H309.031C305.268 145.981 303.387 144.265 303.387 140.834C303.387 137.514 305.805 135.854 310.642 135.854C312.722 135.854 314.786 136.13 316.834 136.684V139.34C314.786 138.676 312.722 138.344 310.642 138.344C307.742 138.344 306.292 139.174 306.292 140.834C306.292 142.384 307.205 143.158 309.031 143.158H311.521C315.506 143.158 317.498 144.874 317.498 148.305C317.498 151.625 315.085 153.285 310.26 153.285C308.168 153.285 306.098 153.009 304.051 152.455ZM321.482 152.455V149.799C323.53 150.463 325.6 150.795 327.691 150.795C330.469 150.795 331.858 149.965 331.858 148.305C331.858 146.755 330.89 145.981 328.953 145.981H326.463C322.7 145.981 320.818 144.265 320.818 140.834C320.818 137.514 323.237 135.854 328.073 135.854C330.154 135.854 332.218 136.13 334.266 136.684V139.34C332.218 138.676 330.154 138.344 328.073 138.344C325.174 138.344 323.724 139.174 323.724 140.834C323.724 142.384 324.637 143.158 326.463 143.158H328.953C332.938 143.158 334.93 144.874 334.93 148.305C334.93 151.625 332.517 153.285 327.691 153.285C325.6 153.285 323.53 153.009 321.482 152.455ZM350.784 129.545V150.795H363.202V153.285H347.713V129.545H350.784ZM365.709 148.023C365.709 144.448 368.066 142.66 372.781 142.66C374.298 142.66 375.814 142.771 377.33 142.992V141.349C377.33 139.346 375.764 138.344 372.632 138.344C370.839 138.344 369.002 138.621 367.12 139.174V136.684C369.002 136.13 370.839 135.854 372.632 135.854C377.812 135.854 380.401 137.658 380.401 141.266V153.285H378.675L377.612 151.559C375.875 152.71 373.982 153.285 371.935 153.285C367.784 153.285 365.709 151.531 365.709 148.023ZM372.781 145.151C370.114 145.151 368.78 146.091 368.78 147.973C368.78 149.854 369.832 150.795 371.935 150.795C374.06 150.795 375.858 150.231 377.33 149.102V145.483C375.814 145.261 374.298 145.151 372.781 145.151ZM383.323 135.854H386.66L391.591 149.467L396.688 135.854H399.941L392.703 153.8C391.419 156.965 389.493 158.941 386.926 159.727L385.747 157.552C387.695 156.7 389.112 155.311 389.997 153.385L383.323 135.854ZM410.019 135.854C414.977 135.854 417.456 138.305 417.456 143.208C417.456 143.906 417.406 144.653 417.307 145.449H405.071C405.071 149.013 407.152 150.795 411.313 150.795C413.295 150.795 415.054 150.574 416.593 150.131V152.621C415.054 153.064 413.184 153.285 410.981 153.285C404.994 153.285 402 150.314 402 144.37C402 138.693 404.673 135.854 410.019 135.854ZM405.071 142.893H414.501C414.435 139.838 412.94 138.311 410.019 138.311C406.92 138.311 405.271 139.838 405.071 142.893ZM421.59 153.285V135.854H423.665L424.213 138.078C425.74 136.595 427.577 135.854 429.725 135.854V138.41C427.644 138.41 425.956 139.146 424.661 140.618V153.285H421.59Z" fill="white"/>
</svg>
