<svg width="428" height="113" viewBox="0 0 428 113" fill="none" xmlns="http://www.w3.org/2000/svg">
<path d="M52.4365 92.3203H53.3906L74.0469 0H105.827L73.8887 112.024H31.9385L0 0H31.7803L52.4365 92.3203ZM164.913 0C176.248 3.59364e-05 186.152 2.22469 194.627 6.67383C203.102 11.123 209.722 17.5318 214.489 25.9004C219.256 34.2691 221.64 44.3332 221.64 56.0918C221.64 67.8502 219.256 77.9136 214.489 86.2822C209.722 94.545 203.048 100.901 194.468 105.351C185.993 109.8 176.089 112.024 164.754 112.024H122.486V97.6172C128.139 98.7122 134.604 99.3672 141.586 99.3672C165.432 99.3672 183.257 91.7437 183.257 84.9326V67.5195C174.311 74.0835 157.611 77.5449 141.586 77.5449C135.146 77.5449 128.597 76.9848 122.486 75.8906V69.2031C128.139 70.2982 134.604 70.9531 141.586 70.9531C165.432 70.9531 183.257 63.3297 183.257 56.5186V39.1221C174.311 45.6901 157.611 49.1514 141.586 49.1514C135.146 49.1513 128.597 48.5909 122.486 47.4961V40.9531C128.208 41.9782 134.702 42.5576 141.586 42.5576C164.598 42.5576 183.257 36.0888 183.257 28.1074C183.256 20.1307 164.598 13.6621 141.586 13.6621C134.702 13.6621 128.208 14.2407 122.486 15.2656V0H164.913ZM338.661 112.024H308.47L302.362 87.5537H266.154L260.006 112.024H229.814L263.024 0H305.292L338.661 112.024ZM385.115 87.8711H427.7V112.024H355.56V0H385.115V87.8711ZM271.863 64.8311H296.691L284.794 17.1611H283.841L271.863 64.8311Z" fill="#187BAE"/>
</svg>
